<?xml version="1.0" standalone="no"?>
<!DOCTYPE svg PUBLIC "-//W3C//DTD SVG 20010904//EN"
 "http://www.w3.org/TR/2001/REC-SVG-20010904/DTD/svg10.dtd">
<svg version="1.0" xmlns="http://www.w3.org/2000/svg"
 width="939.000000pt" height="49.000000pt" viewBox="0 0 939.000000 49.000000"
 preserveAspectRatio="xMidYMid meet">
<metadata>
Created by potrace 1.16, written by Peter Selinger 2001-2019
</metadata>
<g transform="translate(0.000000,49.000000) scale(0.100000,-0.100000)"
fill="#000000" stroke="none">
<path d="M8080 450 c-14 -11 -22 -20 -17 -21 4 -1 13 -2 20 -3 14 -2 11 -26
-7 -44 -11 -11 -18 -11 -35 -2 -12 6 -30 9 -39 7 -13 -4 -12 -5 4 -6 24 -1 65
-45 60 -63 -1 -7 -1 -10 1 -5 8 12 25 8 40 -10 24 -32 36 -67 37 -117 1 -30 6
-51 14 -54 11 -3 48 31 109 101 10 12 23 37 30 55 10 31 10 34 -15 45 -32 13
-62 37 -62 48 0 5 10 18 23 30 17 17 18 21 4 16 -11 -4 -20 -1 -23 8 -8 19
-24 20 -24 1 0 -7 -7 -19 -15 -26 -11 -9 -15 -9 -15 -1 0 12 -48 61 -59 61 -3
0 -17 -9 -31 -20z"/>
<path d="M7843 383 c-23 -8 -65 -35 -93 -60 -109 -98 -124 -210 -32 -238 22
-6 23 -5 17 29 -5 26 -1 47 14 79 30 63 96 148 138 180 42 31 26 35 -44 10z"/>
<path d="M275 348 c-22 -18 -43 -36 -46 -41 -7 -9 -41 2 -51 17 -17 25 -178
-57 -178 -91 1 -14 6 -12 26 11 14 15 28 26 31 22 4 -3 4 -6 0 -6 -3 0 -2 -13
3 -29 6 -23 5 -31 -7 -35 -21 -9 -23 -8 -23 10 0 14 -2 14 -15 0 -9 -9 -15
-33 -15 -60 l0 -46 36 0 c22 0 47 9 67 24 53 40 87 50 108 30 17 -16 22 -16
64 0 l45 18 0 104 c0 57 -1 104 -3 104 -1 0 -20 -14 -42 -32z"/>
<path d="M8063 293 c-26 -5 -73 -92 -73 -135 0 -33 28 -65 65 -74 26 -7 50 5
28 13 -20 7 -15 60 11 111 18 37 21 52 13 70 -5 12 -13 21 -16 21 -3 -1 -16
-4 -28 -6z"/>
<path d="M2178 33 c1200 -2 3164 -2 4365 0 1200 1 218 2 -2183 2 -2401 0
-3383 -1 -2182 -2z"/>
</g>
</svg>
